<?xml version="1.0" encoding="UTF-8" standalone="no"?>
<!DOCTYPE svg PUBLIC "-//W3C//DTD SVG 1.1//EN"
 "http://www.w3.org/Graphics/SVG/1.1/DTD/svg11.dtd">
<!-- Generated by graphviz version 2.43.0 (0)
 -->
<!-- Title: calculation Pages: 1 -->
<svg width="806px" height="314px"
 viewBox="0.00 0.00 806.00 314.00" xmlns="http://www.w3.org/2000/svg" xmlns:xlink="http://www.w3.org/1999/xlink">
<g id="graph0" class="graph" transform="scale(1.0 1.0) rotate(0.0) translate(4.0 310.0)">
<title>calculation</title>
<polygon fill="white" stroke="transparent" points="-4,4 -4,-310 802,-310 802,4 -4,4"/>
<!-- id0 -->
<g id="node1" class="node">
<title>id0</title>
<polygon fill="lightskyblue" stroke="black" points="146.5,-306 8.5,-306 8.5,-270 146.5,-270 146.5,-306"/>
<text text-anchor="middle" x="77.5" y="-284.3" font-family="Times,serif" font-size="14.00">Item.price() {Item#0}</text>
</g>
<!-- id6 -->
<g id="node7" class="node">
<title>id6</title>
<polygon fill="lightskyblue" stroke="black" points="337,-248 191,-248 191,-212 337,-212 337,-248"/>
<text text-anchor="middle" x="264" y="-226.3" font-family="Times,serif" font-size="14.00">Item.sum#rw {Item#0}</text>
</g>
<!-- id0&#45;&gt;id6 -->
<g id="edge1" class="edge">
<title>id0&#45;&gt;id6</title>
<path fill="none" stroke="black" d="M135.87,-269.97C154.96,-263.97 176.38,-257.23 196.13,-251.02"/>
<polygon fill="black" stroke="black" points="197.18,-254.36 205.67,-248.02 195.08,-247.68 197.18,-254.36"/>
</g>
<!-- id1 -->
<g id="node2" class="node">
<title>id1</title>
<polygon fill="lightskyblue" stroke="black" points="155,-252 0,-252 0,-216 155,-216 155,-252"/>
<text text-anchor="middle" x="77.5" y="-230.3" font-family="Times,serif" font-size="14.00">Item.quantity() {Item#0}</text>
</g>
<!-- id1&#45;&gt;id6 -->
<g id="edge2" class="edge">
<title>id1&#45;&gt;id6</title>
<path fill="none" stroke="black" d="M155.14,-232.34C163.52,-232.16 172.07,-231.97 180.51,-231.79"/>
<polygon fill="black" stroke="black" points="180.82,-235.28 190.74,-231.57 180.66,-228.28 180.82,-235.28"/>
</g>
<!-- id2 -->
<g id="node3" class="node">
<title>id2</title>
<polygon fill="lightskyblue" stroke="black" points="146.5,-198 8.5,-198 8.5,-162 146.5,-162 146.5,-198"/>
<text text-anchor="middle" x="77.5" y="-176.3" font-family="Times,serif" font-size="14.00">Item.price() {Item#1}</text>
</g>
<!-- id9 -->
<g id="node10" class="node">
<title>id9</title>
<polygon fill="lightskyblue" stroke="black" points="337,-156 191,-156 191,-120 337,-120 337,-156"/>
<text text-anchor="middle" x="264" y="-134.3" font-family="Times,serif" font-size="14.00">Item.sum#rw {Item#1}</text>
</g>
<!-- id2&#45;&gt;id9 -->
<g id="edge5" class="edge">
<title>id2&#45;&gt;id9</title>
<path fill="none" stroke="black" d="M146.68,-164.48C157.79,-161.95 169.41,-159.31 180.82,-156.71"/>
<polygon fill="black" stroke="black" points="181.8,-160.07 190.77,-154.44 180.24,-153.25 181.8,-160.07"/>
</g>
<!-- id3 -->
<g id="node4" class="node">
<title>id3</title>
<polygon fill="lightskyblue" stroke="black" points="155,-144 0,-144 0,-108 155,-108 155,-144"/>
<text text-anchor="middle" x="77.5" y="-122.3" font-family="Times,serif" font-size="14.00">Item.quantity() {Item#1}</text>
</g>
<!-- id3&#45;&gt;id9 -->
<g id="edge6" class="edge">
<title>id3&#45;&gt;id9</title>
<path fill="none" stroke="black" d="M155.14,-130.98C163.52,-131.53 172.07,-132.09 180.51,-132.64"/>
<polygon fill="black" stroke="black" points="180.53,-136.14 190.74,-133.3 180.99,-129.16 180.53,-136.14"/>
</g>
<!-- id4 -->
<g id="node5" class="node">
<title>id4</title>
<polygon fill="lightskyblue" stroke="black" points="146.5,-90 8.5,-90 8.5,-54 146.5,-54 146.5,-90"/>
<text text-anchor="middle" x="77.5" y="-68.3" font-family="Times,serif" font-size="14.00">Item.price() {Item#2}</text>
</g>
<!-- id11 -->
<g id="node12" class="node">
<title>id11</title>
<polygon fill="lightskyblue" stroke="black" points="337,-94 191,-94 191,-58 337,-58 337,-94"/>
<text text-anchor="middle" x="264" y="-72.3" font-family="Times,serif" font-size="14.00">Item.sum#rw {Item#2}</text>
</g>
<!-- id4&#45;&gt;id11 -->
<g id="edge9" class="edge">
<title>id4&#45;&gt;id11</title>
<path fill="none" stroke="black" d="M146.68,-73.48C157.68,-73.72 169.17,-73.97 180.47,-74.21"/>
<polygon fill="black" stroke="black" points="180.7,-77.72 190.77,-74.43 180.85,-70.72 180.7,-77.72"/>
</g>
<!-- id5 -->
<g id="node6" class="node">
<title>id5</title>
<polygon fill="lightskyblue" stroke="black" points="155,-36 0,-36 0,0 155,0 155,-36"/>
<text text-anchor="middle" x="77.5" y="-14.3" font-family="Times,serif" font-size="14.00">Item.quantity() {Item#2}</text>
</g>
<!-- id5&#45;&gt;id11 -->
<g id="edge10" class="edge">
<title>id5&#45;&gt;id11</title>
<path fill="none" stroke="black" d="M135.87,-36.03C154.96,-42.03 176.38,-48.77 196.13,-54.98"/>
<polygon fill="black" stroke="black" points="195.08,-58.32 205.67,-57.98 197.18,-51.64 195.08,-58.32"/>
</g>
<!-- id7 -->
<g id="node8" class="node">
<title>id7</title>
<polygon fill="lightskyblue" stroke="black" points="798,-280 616,-280 616,-244 798,-244 798,-280"/>
<text text-anchor="middle" x="707" y="-258.3" font-family="Times,serif" font-size="14.00">Item.isCheapest#rw {Item#0}</text>
</g>
<!-- id6&#45;&gt;id7 -->
<g id="edge4" class="edge">
<title>id6&#45;&gt;id7</title>
<path fill="none" stroke="black" d="M337.02,-247.24C348.98,-249.56 361.29,-251.61 373,-253 450.84,-262.26 539.6,-264.24 605.9,-264.05"/>
<polygon fill="black" stroke="black" points="605.95,-267.55 615.93,-264 605.91,-260.55 605.95,-267.55"/>
</g>
<!-- id8 -->
<g id="node9" class="node">
<title>id8</title>
<polygon fill="lightskyblue" stroke="black" points="545,-244 408,-244 408,-208 545,-208 545,-244"/>
<text text-anchor="middle" x="476.5" y="-222.3" font-family="Times,serif" font-size="14.00">min(Double)&#45;&gt;Cart#0</text>
</g>
<!-- id6&#45;&gt;id8 -->
<g id="edge16" class="edge">
<title>id6&#45;&gt;id8</title>
<path fill="none" stroke="black" d="M337.15,-228.63C356.61,-228.26 377.75,-227.86 397.51,-227.48"/>
<polygon fill="black" stroke="black" points="397.77,-230.98 407.7,-227.29 397.64,-223.98 397.77,-230.98"/>
</g>
<!-- id13 -->
<g id="node14" class="node">
<title>id13</title>
<polygon fill="lightskyblue" stroke="black" points="580,-152 373,-152 373,-116 580,-116 580,-152"/>
<text text-anchor="middle" x="476.5" y="-130.3" font-family="Times,serif" font-size="14.00">Cart.sumWithoutTax#rw {Cart#0}</text>
</g>
<!-- id6&#45;&gt;id13 -->
<g id="edge13" class="edge">
<title>id6&#45;&gt;id13</title>
<path fill="none" stroke="black" d="M304.59,-211.94C339.18,-196.17 389.51,-173.22 426.6,-156.3"/>
<polygon fill="black" stroke="black" points="428.08,-159.47 435.73,-152.14 425.18,-153.1 428.08,-159.47"/>
</g>
<!-- id14 -->
<g id="node15" class="node">
<title>id14</title>
<polygon fill="lightskyblue" stroke="black" points="546,-98 407,-98 407,-62 546,-62 546,-98"/>
<text text-anchor="middle" x="476.5" y="-76.3" font-family="Times,serif" font-size="14.00">max(Double)&#45;&gt;Cart#0</text>
</g>
<!-- id6&#45;&gt;id14 -->
<g id="edge19" class="edge">
<title>id6&#45;&gt;id14</title>
<path fill="none" stroke="black" d="M288.28,-211.86C303.2,-199.57 322.42,-182.45 337,-165 356.45,-141.72 348.6,-125.03 373,-107 380.34,-101.58 388.67,-97.24 397.35,-93.78"/>
<polygon fill="black" stroke="black" points="398.65,-97.03 406.87,-90.35 396.27,-90.45 398.65,-97.03"/>
</g>
<!-- id8&#45;&gt;id7 -->
<g id="edge3" class="edge">
<title>id8&#45;&gt;id7</title>
<path fill="none" stroke="black" d="M545.13,-236.66C564.13,-239.65 585.21,-242.97 605.68,-246.19"/>
<polygon fill="black" stroke="black" points="605.24,-249.67 615.67,-247.77 606.33,-242.75 605.24,-249.67"/>
</g>
<!-- id10 -->
<g id="node11" class="node">
<title>id10</title>
<polygon fill="lightskyblue" stroke="black" points="798,-217 616,-217 616,-181 798,-181 798,-217"/>
<text text-anchor="middle" x="707" y="-195.3" font-family="Times,serif" font-size="14.00">Item.isCheapest#rw {Item#1}</text>
</g>
<!-- id8&#45;&gt;id10 -->
<g id="edge7" class="edge">
<title>id8&#45;&gt;id10</title>
<path fill="none" stroke="black" d="M545.13,-218.01C564.13,-215.76 585.21,-213.27 605.68,-210.85"/>
<polygon fill="black" stroke="black" points="606.14,-214.32 615.67,-209.67 605.32,-207.37 606.14,-214.32"/>
</g>
<!-- id12 -->
<g id="node13" class="node">
<title>id12</title>
<polygon fill="lightskyblue" stroke="black" points="798,-117 616,-117 616,-81 798,-81 798,-117"/>
<text text-anchor="middle" x="707" y="-95.3" font-family="Times,serif" font-size="14.00">Item.isCheapest#rw {Item#2}</text>
</g>
<!-- id8&#45;&gt;id12 -->
<g id="edge11" class="edge">
<title>id8&#45;&gt;id12</title>
<path fill="none" stroke="black" d="M510.24,-207.8C550.88,-185.22 620.22,-146.67 664.54,-122.04"/>
<polygon fill="black" stroke="black" points="666.28,-125.08 673.32,-117.16 662.88,-118.96 666.28,-125.08"/>
</g>
<!-- id9&#45;&gt;id8 -->
<g id="edge17" class="edge">
<title>id9&#45;&gt;id8</title>
<path fill="none" stroke="black" d="M296.43,-156.17C317.62,-167.95 346.44,-183.07 373,-194 382.18,-197.78 391.98,-201.37 401.73,-204.69"/>
<polygon fill="black" stroke="black" points="400.86,-208.09 411.46,-207.91 403.07,-201.44 400.86,-208.09"/>
</g>
<!-- id9&#45;&gt;id10 -->
<g id="edge8" class="edge">
<title>id9&#45;&gt;id10</title>
<path fill="none" stroke="black" d="M337.15,-154.37C349.09,-156.79 361.36,-159.1 373,-161 450.84,-173.7 539.6,-183.6 605.9,-190.11"/>
<polygon fill="black" stroke="black" points="605.64,-193.6 615.93,-191.09 606.32,-186.64 605.64,-193.6"/>
</g>
<!-- id9&#45;&gt;id13 -->
<g id="edge14" class="edge">
<title>id9&#45;&gt;id13</title>
<path fill="none" stroke="black" d="M337.15,-136.63C345.45,-136.47 354.05,-136.31 362.72,-136.14"/>
<polygon fill="black" stroke="black" points="362.99,-139.64 372.92,-135.95 362.85,-132.64 362.99,-139.64"/>
</g>
<!-- id9&#45;&gt;id14 -->
<g id="edge20" class="edge">
<title>id9&#45;&gt;id14</title>
<path fill="none" stroke="black" d="M326.9,-119.98C341.97,-115.66 358.05,-111.11 373,-107 380.76,-104.87 388.86,-102.67 396.95,-100.5"/>
<polygon fill="black" stroke="black" points="398.04,-103.83 406.8,-97.87 396.24,-97.07 398.04,-103.83"/>
</g>
<!-- id11&#45;&gt;id8 -->
<g id="edge18" class="edge">
<title>id11&#45;&gt;id8</title>
<path fill="none" stroke="black" d="M310.88,-94.07C320.05,-98.81 329.24,-104.47 337,-111 357.95,-128.63 353.08,-142.22 373,-161 390.21,-177.22 412.03,-191.71 431.11,-202.87"/>
<polygon fill="black" stroke="black" points="429.52,-206 439.94,-207.92 432.99,-199.92 429.52,-206"/>
</g>
<!-- id11&#45;&gt;id12 -->
<g id="edge12" class="edge">
<title>id11&#45;&gt;id12</title>
<path fill="none" stroke="black" d="M337.28,-58.43C349.15,-56.17 361.37,-54.22 373,-53 464.49,-43.37 489.41,-36.98 580,-53 606.7,-57.72 635.19,-67.67 658.3,-77.11"/>
<polygon fill="black" stroke="black" points="656.96,-80.34 667.53,-80.96 659.66,-73.88 656.96,-80.34"/>
</g>
<!-- id11&#45;&gt;id13 -->
<g id="edge15" class="edge">
<title>id11&#45;&gt;id13</title>
<path fill="none" stroke="black" d="M326.9,-94.02C341.97,-98.34 358.05,-102.89 373,-107 380.63,-109.1 388.59,-111.26 396.56,-113.39"/>
<polygon fill="black" stroke="black" points="395.68,-116.78 406.25,-115.98 397.49,-110.02 395.68,-116.78"/>
</g>
<!-- id11&#45;&gt;id14 -->
<g id="edge21" class="edge">
<title>id11&#45;&gt;id14</title>
<path fill="none" stroke="black" d="M337.15,-77.37C356.4,-77.74 377.31,-78.13 396.89,-78.51"/>
<polygon fill="black" stroke="black" points="396.93,-82.01 407,-78.7 397.06,-75.01 396.93,-82.01"/>
</g>
</g>
</svg>
